<?xml version="1.0" standalone="no"?><!DOCTYPE svg PUBLIC "-//W3C//DTD SVG 1.1//EN" "http://www.w3.org/Graphics/SVG/1.1/DTD/svg11.dtd"><svg height="510" node-id="1" sillyvg="true" template-height="510" template-width="598" version="1.1" viewBox="0 0 598 510" width="598" xmlns="http://www.w3.org/2000/svg" xmlns:xlink="http://www.w3.org/1999/xlink"><defs node-id="188"><linearGradient gradientUnits="objectBoundingBox" id="linearGradient-3" node-id="8" spreadMethod="pad" x1="0.5" x2="0.5" y1="0.31096208" y2="1"><stop offset="0" stop-color="#ffffff"></stop><stop offset="1" stop-color="#dfdfdf"></stop></linearGradient><linearGradient gradientUnits="objectBoundingBox" id="linearGradient-4" node-id="11" spreadMethod="pad" x1="0.5" x2="0.5" y1="0" y2="1"><stop offset="0" stop-color="#ffffff"></stop><stop offset="1" stop-color="#dcdcdc"></stop></linearGradient><linearGradient gradientUnits="objectBoundingBox" id="linearGradient-7" node-id="15" spreadMethod="pad" x1="0.5" x2="0.5" y1="0.7693332" y2="1"><stop offset="0" stop-color="#eeeeee"></stop><stop offset="1" stop-color="#d8d8d8"></stop></linearGradient><linearGradient gradientUnits="objectBoundingBox" id="linearGradient-14" node-id="21" spreadMethod="pad" x1="0.5" x2="0.5" y1="0" y2="1"><stop offset="0" stop-color="#ffffff"></stop><stop offset="1" stop-color="#f8fcff"></stop></linearGradient><linearGradient gradientUnits="objectBoundingBox" id="linearGradient-17" node-id="25" spreadMethod="pad" x1="0.000019915185" x2="1.0000266" y1="0.49998844" y2="0.49998844"><stop offset="0" stop-color="#9ad0e6"></stop><stop offset="1" stop-color="#d3eaef"></stop></linearGradient><linearGradient gradientUnits="objectBoundingBox" id="linearGradient-20" node-id="29" spreadMethod="pad" x1="0.000019915185" x2="1.0000266" y1="0.49989346" y2="0.49989346"><stop offset="0" stop-color="#ffffff"></stop><stop offset="1" stop-color="#c2d9dd"></stop></linearGradient><linearGradient gradientUnits="objectBoundingBox" id="linearGradient-23" node-id="33" spreadMethod="pad" x1="0.71716905" x2="0.17926459" y1="0.049156018" y2="1.1582323"><stop offset="0" stop-color="#e4edef"></stop><stop offset="1" stop-color="#c1e2ef"></stop></linearGradient><linearGradient gradientUnits="objectBoundingBox" id="linearGradient-26" node-id="37" spreadMethod="pad" x1="-0.000022967526" x2="0.9999646" y1="0.5091161" y2="0.5091161"><stop offset="0" stop-color="#ffffff"></stop><stop offset="1" stop-color="#c2d9dd"></stop></linearGradient><linearGradient gradientUnits="objectBoundingBox" id="linearGradient-29" node-id="41" spreadMethod="pad" x1="-0.16609985" x2="1.009517" y1="0.5460512" y2="0.5460512"><stop offset="0" stop-color="#c1e2ef"></stop><stop offset="1" stop-color="#e4edef"></stop></linearGradient><linearGradient gradientUnits="objectBoundingBox" id="linearGradient-34" node-id="46" spreadMethod="pad" x1="-0.060472943" x2="1.3707358" y1="0.39151236" y2="0.39151236"><stop offset="0" stop-color="#f6dd70"></stop><stop offset="1" stop-color="#fff7ed"></stop></linearGradient><linearGradient gradientUnits="objectBoundingBox" id="linearGradient-37" node-id="50" spreadMethod="pad" x1="-0.4877468" x2="1.098815" y1="0.7466388" y2="0.7466388"><stop offset="0" stop-color="#c1e2ef"></stop><stop offset="1" stop-color="#e4edef"></stop></linearGradient><linearGradient gradientUnits="objectBoundingBox" id="linearGradient-40" node-id="54" spreadMethod="pad" x1="0.0000007318309" x2="1.0000199" y1="0.49999833" y2="0.49999833"><stop offset="0" stop-color="#fad5c6"></stop><stop offset="1" stop-color="#fce8df"></stop></linearGradient><linearGradient gradientUnits="objectBoundingBox" id="linearGradient-43" node-id="58" spreadMethod="pad" x1="0.1808618" x2="0.8254893" y1="0.5588223" y2="0.42465234"><stop offset="0" stop-color="#ffffff"></stop><stop offset="1" stop-color="#2fa8b3"></stop></linearGradient><linearGradient gradientUnits="objectBoundingBox" id="linearGradient-46" node-id="62" spreadMethod="pad" x1="0.14347471" x2="0.80154747" y1="0.57826114" y2="0.4425437"><stop offset="0" stop-color="#e0f1f6"></stop><stop offset="1" stop-color="#2796a0"></stop></linearGradient><linearGradient gradientUnits="objectBoundingBox" id="linearGradient-49" node-id="66" spreadMethod="pad" x1="0.46885926" x2="0.5339716" y1="0.5238341" y2="0.45123973"><stop offset="0" stop-color="#ffffff"></stop><stop offset="1" stop-color="#5fbbc5"></stop></linearGradient><linearGradient gradientUnits="objectBoundingBox" id="linearGradient-52" node-id="70" spreadMethod="pad" x1="0.45571268" x2="0.5524032" y1="0.37754208" y2="0.6421718"><stop offset="0" stop-color="#ffffff"></stop><stop offset="1" stop-color="#2fa8b3"></stop></linearGradient><linearGradient gradientUnits="objectBoundingBox" id="linearGradient-55" node-id="74" spreadMethod="pad" x1="0.45633402" x2="0.53172" y1="0.36186507" y2="0.62187505"><stop offset="0" stop-color="#e0f1f6"></stop><stop offset="1" stop-color="#2796a0"></stop></linearGradient><mask height="91.546814" id="mask-2" maskUnits="userSpaceOnUse" node-id="85" width="9.739204" x="114.1794" y="351.0481"><path d="M 0.00 509.30 L 597.69 509.30 L 597.69 -10.00 L 0.00 -10.00 Z" fill="#ffffff" fill-rule="evenodd" node-id="295" stroke="none" target-height="519.299" target-width="597.692" target-x="0" target-y="-10"></path></mask><mask height="30.516022" id="mask1" maskUnits="userSpaceOnUse" node-id="299" width="81.652176" x="78.22287" y="481.3265"><path d="M 0.00 509.30 L 597.69 509.30 L 597.69 -10.00 L 0.00 -10.00 Z" fill="#ffffff" fill-rule="evenodd" node-id="303" stroke="none" target-height="519.299" target-width="597.692" target-x="0" target-y="-10"></path></mask><mask height="96.24124" id="mask2" maskUnits="userSpaceOnUse" node-id="307" width="19.479599" x="109.3094" y="401.5164"><path d="M 0.00 509.30 L 597.69 509.30 L 597.69 -10.00 L 0.00 -10.00 Z" fill="#ffffff" fill-rule="evenodd" node-id="311" stroke="none" target-height="519.299" target-width="597.692" target-x="0" target-y="-10"></path></mask><mask height="237.21094" id="mask3" maskUnits="userSpaceOnUse" node-id="315" width="273.79816" x="-0.49731064" y="170.75687"><path d="M 0.00 509.30 L 597.69 509.30 L 597.69 -10.00 L 0.00 -10.00 Z" fill="#ffffff" fill-rule="evenodd" node-id="319" stroke="none" target-height="519.299" target-width="597.692" target-x="0" target-y="-10"></path></mask><mask height="238.15485" id="mask4" maskUnits="userSpaceOnUse" node-id="323" width="267.035" x="-22.252682" y="172.56134"><path d="M 0.00 509.30 L 597.69 509.30 L 597.69 -10.00 L 0.00 -10.00 Z" fill="#ffffff" fill-rule="evenodd" node-id="327" stroke="none" target-height="519.299" target-width="597.692" target-x="0" target-y="-10"></path></mask><mask height="197.58241" id="mask-6" maskUnits="userSpaceOnUse" node-id="97" width="278.5584" x="194.8968" y="-15.481199"><path d="M 224.60 0.98 C 221.02 0.98 218.11 3.90 218.11 7.48 L 218.11 7.48 L 218.11 159.14 C 218.11 162.72 221.02 165.64 224.60 165.64 L 224.60 165.64 L 443.75 165.64 C 447.33 165.64 450.24 162.72 450.24 159.14 L 450.24 159.14 L 450.24 7.48 C 450.24 3.90 447.33 0.98 443.75 0.98 L 443.75 0.98 L 224.60 0.98 Z" fill="#ffffff" fill-rule="evenodd" node-id="334" stroke="none" target-height="164.65201" target-width="232.132" target-x="218.11" target-y="0.98400074"></path></mask><mask height="167.74199" id="mask-9" maskUnits="userSpaceOnUse" node-id="101" width="325.4568" x="176.6676" y="-23.9785"><path d="M 224.60 0.98 C 221.02 0.98 218.11 3.90 218.11 7.48 L 218.11 7.48 L 218.11 159.14 C 218.11 162.72 221.02 165.64 224.60 165.64 L 224.60 165.64 L 443.75 165.64 C 447.33 165.64 450.24 162.72 450.24 159.14 L 450.24 159.14 L 450.24 7.48 C 450.24 3.90 447.33 0.98 443.75 0.98 L 443.75 0.98 L 224.60 0.98 Z" fill="#ffffff" fill-rule="evenodd" node-id="341" stroke="none" target-height="164.65201" target-width="232.132" target-x="218.11" target-y="0.98400074"></path></mask><mask height="129.45358" id="mask5" maskUnits="userSpaceOnUse" node-id="345" width="250.29002" x="208.2975" y="2.318201"><path d="M 224.60 0.98 C 221.02 0.98 218.11 3.90 218.11 7.48 L 218.11 7.48 L 218.11 159.14 C 218.11 162.72 221.02 165.64 224.60 165.64 L 224.60 165.64 L 443.75 165.64 C 447.33 165.64 450.24 162.72 450.24 159.14 L 450.24 159.14 L 450.24 7.48 C 450.24 3.90 447.33 0.98 443.75 0.98 L 443.75 0.98 L 224.60 0.98 Z" fill="#ffffff" fill-rule="evenodd" node-id="349" stroke="none" target-height="164.65201" target-width="232.132" target-x="218.11" target-y="0.98400074"></path></mask><mask height="17.604004" id="mask-11" maskUnits="userSpaceOnUse" node-id="107" width="17.538025" x="325.4055" y="136.887"><path d="M 326.87 145.69 C 326.87 149.74 330.14 153.02 334.18 153.02 L 334.18 153.02 C 338.21 153.02 341.48 149.74 341.48 145.69 L 341.48 145.69 C 341.48 141.64 338.21 138.35 334.18 138.35 L 334.18 138.35 C 330.14 138.35 326.87 141.64 326.87 145.69" fill="#ffffff" fill-rule="evenodd" node-id="356" stroke="none" target-height="14.670013" target-width="14.61499" target-x="326.867" target-y="138.35399"></path></mask><mask height="24.998398" id="mask-13" maskUnits="userSpaceOnUse" node-id="112" width="214.02599" x="228.7665" y="198.9438"><path d="M 267.91 201.15 L 246.60 221.86 L 424.96 221.86 L 403.76 201.03 Z" fill="#ffffff" fill-rule="evenodd" node-id="363" stroke="none" target-height="20.832" target-width="178.355" target-x="246.602" target-y="201.027"></path></mask><mask height="11.119202" id="mask-16" maskUnits="userSpaceOnUse" node-id="117" width="52.066803" x="181.2541" y="210.37239"><path d="M 193.66 212.33 L 185.59 212.33 L 185.59 216.45 L 185.73 216.45 C 186.93 218.76 196.13 220.56 207.29 220.56 L 207.29 220.56 C 218.45 220.56 227.65 218.76 228.85 216.45 L 228.85 216.45 L 228.98 216.45 L 228.98 212.33 L 220.92 212.33 C 217.19 211.68 212.45 211.30 207.29 211.30 L 207.29 211.30 C 202.13 211.30 197.38 211.68 193.66 212.33" fill="#ffffff" fill-rule="evenodd" node-id="370" stroke="none" target-height="9.266006" target-width="43.388992" target-x="185.593" target-y="211.299"></path></mask><mask height="11.120407" id="mask-19" maskUnits="userSpaceOnUse" node-id="122" width="52.066803" x="181.2541" y="207.2833"><path d="M 185.59 212.84 C 185.59 215.40 195.31 217.48 207.29 217.48 L 207.29 217.48 C 219.26 217.48 228.98 215.40 228.98 212.84 L 228.98 212.84 C 228.98 210.29 219.26 208.21 207.29 208.21 L 207.29 208.21 C 195.31 208.21 185.59 210.29 185.59 212.84" fill="#ffffff" fill-rule="evenodd" node-id="377" stroke="none" target-height="9.266998" target-width="43.388992" target-x="185.593" target-y="208.20999"></path></mask><mask height="73.92066" id="mask-22" maskUnits="userSpaceOnUse" node-id="127" width="52.37291" x="196.2925" y="76.861946"><path d="M 201.03 138.74 C 200.33 139.82 200.65 141.28 201.74 141.97 L 201.74 141.97 L 205.29 144.25 C 206.38 144.95 207.84 144.63 208.54 143.54 L 208.54 143.54 L 244.30 88.06 L 236.94 83.02 L 201.03 138.74 Z" fill="#ffffff" fill-rule="evenodd" node-id="384" stroke="none" target-height="61.92801" target-width="43.972992" target-x="200.328" target-y="83.022"></path></mask><mask height="90.36061" id="mask-25" maskUnits="userSpaceOnUse" node-id="132" width="10.716003" x="199.931" y="130.20995"><path d="M 203.18 137.74 C 201.88 137.74 200.82 138.79 200.82 140.08 L 200.82 140.08 L 200.82 212.07 C 200.82 213.36 209.75 213.36 209.75 212.07 L 209.75 212.07 L 209.75 140.08 C 209.75 138.79 208.70 137.74 207.40 137.74 L 207.40 137.74 L 203.18 137.74 Z" fill="#ffffff" fill-rule="evenodd" node-id="391" stroke="none" target-height="75.62401" target-width="8.929993" target-x="200.824" target-y="137.73999"></path></mask><mask height="58.103996" id="mask-28" maskUnits="userSpaceOnUse" node-id="137" width="59.016876" x="230.8002" y="75.450005"><path d="M 235.89 89.90 L 236.86 94.63 C 231.11 105.19 248.94 128.33 248.94 128.33 L 248.94 128.33 C 249.71 128.52 250.53 128.65 251.38 128.71 L 251.38 128.71 L 274.86 118.58 L 284.57 104.61 C 284.72 103.92 284.83 103.22 284.90 102.52 L 284.90 102.52 L 283.12 98.90 C 278.51 93.88 267.00 84.33 263.80 82.54 L 263.80 82.54 C 262.69 81.92 256.25 80.42 256.25 80.42 L 256.25 80.42 C 256.25 80.42 256.22 80.37 256.16 80.29 L 256.16 80.29 C 248.92 81.53 241.40 84.94 235.89 89.90" fill="#ffffff" fill-rule="evenodd" node-id="398" stroke="none" target-height="48.420006" target-width="53.792984" target-x="231.106" target-y="80.292"></path></mask><mask height="42.846138" id="mask-31" maskUnits="userSpaceOnUse" node-id="142" width="63.070602" x="237.77382" y="98.32119"><path d="M 241.86 74.80 C 236.32 77.40 234.89 85.02 234.89 85.02 L 234.89 85.02 L 236.86 94.63 C 231.11 105.19 248.94 128.33 248.94 128.33 L 248.94 128.33 C 261.41 131.42 283.99 117.67 284.94 101.92 L 284.94 101.92 C 286.56 100.64 268.00 84.89 263.80 82.54 L 263.80 82.54 C 262.69 81.92 256.25 80.42 256.25 80.42 L 256.25 80.42 C 256.25 80.42 251.47 73.99 245.46 73.99 L 245.46 73.99 C 244.30 73.99 243.09 74.23 241.86 74.80" fill="#ffffff" fill-rule="evenodd" node-id="405" stroke="none" target-height="57.428993" target-width="55.456985" target-x="231.106" target-y="73.98701"></path></mask><mask height="13.122177" id="mask-33" maskUnits="userSpaceOnUse" node-id="147" width="16.14389" x="255.95367" y="103.282486"><path d="M 257.30 111.66 C 258.70 114.59 262.30 116.05 265.74 114.94 L 265.74 114.94 C 269.45 113.75 271.56 110.00 270.46 106.59 L 270.46 106.59 C 270.18 105.75 269.74 105.00 269.17 104.38 L 269.17 104.38 C 264.48 106.15 260.56 108.74 257.30 111.66" fill="#ffffff" fill-rule="evenodd" node-id="412" stroke="none" target-height="11.671997" target-width="14.265991" target-x="257.299" target-y="104.37601"></path></mask><mask height="24.776398" id="mask-36" maskUnits="userSpaceOnUse" node-id="152" width="29.895584" x="232.3957" y="71.9223"><path d="M 241.86 74.80 C 236.32 77.40 234.89 85.02 234.89 85.02 L 234.89 85.02 L 236.86 94.63 C 236.86 94.63 240.07 80.64 259.80 81.47 L 259.80 81.47 L 259.71 81.27 C 257.93 80.81 256.25 80.42 256.25 80.42 L 256.25 80.42 C 256.25 80.42 251.47 73.99 245.46 73.99 L 245.46 73.99 C 244.30 73.99 243.09 74.23 241.86 74.80" fill="#ffffff" fill-rule="evenodd" node-id="419" stroke="none" target-height="20.646996" target-width="24.912994" target-x="234.887" target-y="73.98701"></path></mask><mask height="41.52086" id="mask-39" maskUnits="userSpaceOnUse" node-id="157" width="47.388" x="129.344" y="169.37492"><path d="M 172.78 172.83 C 159.32 177.18 146.19 176.93 133.29 173.38 L 133.29 173.38 L 140.41 205.14 C 149.27 208.16 158.13 208.26 167.01 205.10 L 167.01 205.10 L 172.78 172.83 L 172.78 172.83 Z" fill="#ffffff" fill-rule="evenodd" node-id="426" stroke="none" target-height="35.425003" target-width="39.490005" target-x="133.293" target-y="172.83499"></path></mask><mask height="52.359283" id="mask-42" maskUnits="userSpaceOnUse" node-id="163" width="47.740845" x="112.22156" y="127.835724"><path d="M 127.20 142.42 C 134.15 159.67 148.90 183.20 155.98 173.61 L 155.98 173.61 C 152.99 153.57 131.11 135.92 116.22 132.20 L 116.22 132.20 C 115.78 132.62 123.83 134.04 127.20 142.42" fill="#ffffff" fill-rule="evenodd" node-id="433" stroke="none" target-height="51.005005" target-width="40.20301" target-x="115.781" target-y="132.19899"></path></mask><mask height="49.38658" id="mask-45" maskUnits="userSpaceOnUse" node-id="168" width="45.445435" x="113.78488" y="128.77245"><path d="M 117.57 132.93 C 117.84 133.05 118.14 133.18 118.47 133.34 L 118.47 133.34 C 135.19 139.65 146.25 153.44 155.31 174.00 L 155.31 174.00 C 155.32 174.04 155.37 174.05 155.40 174.04 L 155.40 174.04 C 155.44 174.02 155.45 173.98 155.44 173.94 L 155.44 173.94 C 146.21 152.99 134.89 139.06 117.66 132.89 L 117.66 132.89 C 117.65 132.89 117.64 132.89 117.64 132.89 L 117.64 132.89 C 117.61 132.89 117.58 132.90 117.57 132.93" fill="#ffffff" fill-rule="evenodd" node-id="440" stroke="none" target-height="41.166" target-width="37.881004" target-x="117.572" target-y="132.888"></path></mask><mask height="113.779945" id="mask-48" maskUnits="userSpaceOnUse" node-id="173" width="32.919144" x="131.15874" y="71.25634"><path d="M 149.11 164.73 C 150.57 176.24 155.86 180.56 160.61 167.70 L 160.61 167.70 C 162.82 139.53 161.54 107.24 133.90 80.74 L 133.90 80.74 C 151.72 106.55 150.67 138.49 149.11 164.73" fill="#ffffff" fill-rule="evenodd" node-id="447" stroke="none" target-height="99.825" target-width="28.919006" target-x="133.902" target-y="80.73801"></path></mask><mask height="59.549522" id="mask-51" maskUnits="userSpaceOnUse" node-id="178" width="18.351105" x="152.70332" y="121.17454"><path d="M 166.00 138.99 C 157.99 154.28 149.12 178.05 157.81 175.58 L 157.81 175.58 C 169.07 160.62 171.53 136.82 168.07 126.14 L 168.07 126.14 C 167.64 126.18 169.88 131.56 166.00 138.99" fill="#ffffff" fill-rule="evenodd" node-id="454" stroke="none" target-height="51.91301" target-width="22.410995" target-x="149.123" target-y="126.13699"></path></mask><mask height="57.825874" id="mask-54" maskUnits="userSpaceOnUse" node-id="183" width="14.140366" x="156.11722" y="122.543175"><path d="M 168.15 127.37 C 168.18 127.60 168.21 127.86 168.24 128.15 L 168.24 128.15 C 170.80 141.56 166.54 156.82 157.31 175.47 L 157.31 175.47 C 157.29 175.50 157.29 175.54 157.32 175.55 L 157.32 175.55 C 157.34 175.56 157.37 175.54 157.39 175.50 L 157.39 175.50 C 166.81 156.49 171.06 141.00 168.20 127.39 L 168.20 127.39 C 168.20 127.37 168.19 127.36 168.17 127.36 L 168.17 127.36 C 168.16 127.36 168.16 127.36 168.15 127.37" fill="#ffffff" fill-rule="evenodd" node-id="461" stroke="none" target-height="48.195007" target-width="13.768005" target-x="157.288" target-y="127.362"></path></mask></defs><g node-id="531"><path d="M 109.71 488.41 L 124.46 488.41 L 124.46 230.02 L 109.71 230.02 Z" fill="#d5ecf6" fill-rule="evenodd" group-id="1" id="Fill-1" node-id="79" stroke="none" target-height="258.38797" target-width="14.755005" target-x="109.708" target-y="230.018"></path><path d="M 503.89 485.25 L 518.64 485.25 L 518.64 226.87 L 503.89 226.87 Z" fill="#d5ecf6" fill-rule="evenodd" group-id="1" id="Fill-2" node-id="80" stroke="none" target-height="258.389" target-width="14.754974" target-x="503.889" target-y="226.866"></path><path d="M 293.34 444.82 L 308.09 444.82 L 308.09 186.43 L 293.34 186.43 Z" fill="#d5ecf6" fill-rule="evenodd" group-id="1" id="Fill-3" node-id="81" stroke="none" target-height="258.38806" target-width="14.756012" target-x="293.336" target-y="186.428"></path><g node-id="532"><path d="M 73.22 211.11 C 115.93 199.36 212.05 191.15 323.66 191.15 C 435.28 191.15 531.40 199.36 574.10 211.11 L 597.69 211.11 L 597.69 223.72 L 597.56 223.72 C 597.65 224.07 597.69 224.42 597.69 224.77 C 597.69 243.32 474.90 258.38 323.66 258.38 C 172.42 258.38 49.63 243.32 49.63 224.77 C 49.63 224.42 49.68 224.07 49.76 223.72 L 49.63 223.72 L 49.63 211.11 L 73.22 211.11 Z" fill="#d0e2f4" fill-rule="evenodd" group-id="1,2" id="Fill-4" node-id="83" stroke="none" target-height="67.22302" target-width="548.059" target-x="49.633" target-y="191.1547"></path><path d="M 323.66 178.55 C 474.90 178.55 597.69 193.61 597.69 212.16 C 597.69 230.71 474.90 245.77 323.66 245.77 C 172.42 245.77 49.63 230.71 49.63 212.16 C 49.63 193.61 172.42 178.55 323.66 178.55" fill="#eaf5fc" fill-rule="evenodd" group-id="1,2" id="Fill-6" node-id="84" stroke="none" target-height="67.22301" target-width="548.059" target-x="49.632504" target-y="178.55069"></path><g node-id="551"><path d="M 114.99 434.97 L 123.11 434.97 L 123.11 358.68 L 114.99 358.68 Z" fill="#d1d5e7" fill-rule="evenodd" group-id="1,2,21" id="Fill-8" node-id="88" stroke="none" target-height="76.289" target-width="8.115997" target-x="114.991005" target-y="358.677"></path></g><g node-id="552"><path d="M 119.05 483.87 L 85.91 505.73 C 84.99 506.34 84.75 507.56 85.38 508.45 C 85.76 508.98 86.39 509.30 87.06 509.30 L 151.04 509.30 C 152.16 509.30 153.07 508.42 153.07 507.34 C 153.07 506.70 152.74 506.09 152.19 505.73 L 119.05 483.87 Z" fill="#dbdeed" fill-rule="evenodd" group-id="1,2,22" id="Fill-10" node-id="89" stroke="none" target-height="25.429993" target-width="68.32199" target-x="84.7487" target-y="483.8695"></path></g><g node-id="553"><path d="M 119.05 409.54 C 114.57 409.54 110.93 413.04 110.93 417.36 L 110.93 489.74 L 127.17 489.74 L 127.17 417.36 C 127.17 413.04 123.53 409.54 119.05 409.54" fill="#dbdeed" fill-rule="evenodd" group-id="1,2,23" id="Fill-11" node-id="90" stroke="none" target-height="80.20102" target-width="16.232994" target-x="110.93271" target-y="409.5365"></path></g><g node-id="554"><path d="M 22.32 192.41 L 114.08 190.53 C 128.93 190.26 144.99 217.71 143.77 229.97 L 156.17 287.72 L 235.97 294.95 C 258.02 304.77 249.93 342.63 244.04 363.46 C 241.03 372.76 230.05 381.17 206.66 388.20 L 63.37 329.34 L 22.32 192.41 Z" fill="#dbdeed" fill-rule="evenodd" group-id="1,2,24" id="Fill-12" node-id="91" stroke="none" target-height="197.93604" target-width="235.704" target-x="22.3192" target-y="190.26419"></path></g><path d="M 67.06 311.28 C 71.96 321.94 185.83 311.31 211.64 323.35 C 226.16 331.29 226.16 382.15 211.64 385.96 C 199.94 391.91 79.36 393.76 58.48 384.01 C 46.12 365.41 13.64 290.84 0.10 205.35 C -1.80 193.33 23.83 187.61 30.11 197.32 C 49.11 249.08 49.45 266.70 67.06 311.28" fill="#f0f2f9" fill-rule="evenodd" group-id="1,2,25" id="Fill-13" node-id="92" stroke="none" target-height="206.142" target-width="227.96199" target-x="-1.8021" target-y="187.6146"></path></g><path d="M 317.04 191.63 L 351.31 191.63 L 351.31 148.11 L 317.04 148.11 Z" fill="url(#linearGradient-3)" fill-rule="evenodd" group-id="1" id="Fill-14" node-id="93" stroke="none" target-height="43.524994" target-width="34.274994" target-x="317.038" target-y="148.106"></path><path d="M 288.13 197.06 L 380.22 197.06 L 380.22 190.77 L 288.13 190.77 Z" fill="url(#linearGradient-4)" fill-rule="evenodd" group-id="1" id="Fill-16" node-id="94" stroke="none" target-height="6.2870026" target-width="92.09299" target-x="288.13" target-y="190.769"></path><g node-id="533"><g node-id="556"><g node-id="593"><path d="M 224.60 0.98 C 221.02 0.98 218.11 3.90 218.11 7.48 L 218.11 7.48 L 218.11 159.14 C 218.11 162.72 221.02 165.64 224.60 165.64 L 224.60 165.64 L 443.75 165.64 C 447.33 165.64 450.24 162.72 450.24 159.14 L 450.24 159.14 L 450.24 7.48 C 450.24 3.90 447.33 0.98 443.75 0.98 L 443.75 0.98 L 224.60 0.98 Z" fill="none" group-id="1,3,26,63" id="Fill-18" node-id="100" stroke="none" target-height="164.65201" target-width="232.132" target-x="218.11" target-y="0.98400074"></path></g></g><g node-id="557"><path d="M 224.60 0.98 C 221.02 0.98 218.11 3.90 218.11 7.48 L 218.11 7.48 L 218.11 159.14 C 218.11 162.72 221.02 165.64 224.60 165.64 L 224.60 165.64 L 443.75 165.64 C 447.33 165.64 450.24 162.72 450.24 159.14 L 450.24 159.14 L 450.24 7.48 C 450.24 3.90 447.33 0.98 443.75 0.98 L 443.75 0.98 L 224.60 0.98 Z" fill="url(#linearGradient-7)" fill-rule="evenodd" group-id="1,3,27" node-id="508" stroke="none" target-height="164.65201" target-width="232.132" target-x="218.11" target-y="0.98400074"></path></g><g node-id="558"><path d="M 203.79 129.78 L 475.00 129.78 L 475.00 -10.00 L 203.79 -10.00 Z" fill="#8a9cac" fill-rule="evenodd" group-id="1,3,28" id="Fill-20" node-id="104" stroke="none" target-height="139.78499" target-width="271.214" target-x="203.789" target-y="-9.999999"></path></g><path d="M 229.16 120.98 L 437.73 120.98 L 437.73 13.11 L 229.16 13.11 Z" fill="#ffffff" fill-rule="evenodd" group-id="1,3,29" id="Fill-22" node-id="105" stroke="none" target-height="107.878" target-width="208.57498" target-x="229.155" target-y="13.106001"></path></g><g node-id="534"><g node-id="561"><path d="M 326.87 145.69 C 326.87 149.74 330.14 153.02 334.18 153.02 L 334.18 153.02 C 338.21 153.02 341.48 149.74 341.48 145.69 L 341.48 145.69 C 341.48 141.64 338.21 138.35 334.18 138.35 L 334.18 138.35 C 330.14 138.35 326.87 141.64 326.87 145.69" fill="none" group-id="1,4,31" id="Fill-23" node-id="110" stroke="none" target-height="14.670013" target-width="14.61499" target-x="326.867" target-y="138.35399"></path></g></g><g node-id="535"><g node-id="562"><path d="M 267.91 201.15 L 246.60 221.86 L 424.96 221.86 L 403.76 201.03 Z" fill="#d8d8d8" fill-rule="evenodd" group-id="1,5,32" node-id="529" stroke="none" target-height="20.832" target-width="178.355" target-x="246.602" target-y="201.027"></path></g><path d="M 267.91 201.15 L 246.60 221.86 L 424.96 221.86 L 403.76 201.03 Z" fill="url(#linearGradient-14)" fill-rule="evenodd" group-id="1,5,33" id="Fill-25" node-id="115" stroke="none" target-height="20.832" target-width="178.355" target-x="246.602" target-y="201.027"></path></g><g node-id="536"><g node-id="565"><path d="M 193.66 212.33 L 185.59 212.33 L 185.59 216.45 L 185.73 216.45 C 186.93 218.76 196.13 220.56 207.29 220.56 L 207.29 220.56 C 218.45 220.56 227.65 218.76 228.85 216.45 L 228.85 216.45 L 228.98 216.45 L 228.98 212.33 L 220.92 212.33 C 217.19 211.68 212.45 211.30 207.29 211.30 L 207.29 211.30 C 202.13 211.30 197.38 211.68 193.66 212.33" fill="url(#linearGradient-17)" fill-rule="evenodd" group-id="1,6,35" id="Fill-27" node-id="120" stroke="none" target-height="9.266006" target-width="43.388992" target-x="185.593" target-y="211.299"></path></g></g><g node-id="537"><g node-id="567"><path d="M 185.59 212.84 C 185.59 215.40 195.31 217.48 207.29 217.48 L 207.29 217.48 C 219.26 217.48 228.98 215.40 228.98 212.84 L 228.98 212.84 C 228.98 210.29 219.26 208.21 207.29 208.21 L 207.29 208.21 C 195.31 208.21 185.59 210.29 185.59 212.84" fill="url(#linearGradient-20)" fill-rule="evenodd" group-id="1,7,37" id="Fill-29" node-id="125" stroke="none" target-height="9.266998" target-width="43.388992" target-x="185.593" target-y="208.20999"></path></g></g><g node-id="538"><g node-id="569"><path d="M 201.03 138.74 C 200.33 139.82 200.65 141.28 201.74 141.97 L 201.74 141.97 L 205.29 144.25 C 206.38 144.95 207.84 144.63 208.54 143.54 L 208.54 143.54 L 244.30 88.06 L 236.94 83.02 L 201.03 138.74 Z" fill="url(#linearGradient-23)" fill-rule="evenodd" group-id="1,8,39" id="Fill-31" node-id="130" stroke="none" target-height="61.92801" target-width="43.972992" target-x="200.328" target-y="83.022"></path></g></g><g node-id="539"><g node-id="571"><path d="M 203.18 137.74 C 201.88 137.74 200.82 138.79 200.82 140.08 L 200.82 140.08 L 200.82 212.07 C 200.82 213.36 209.75 213.36 209.75 212.07 L 209.75 212.07 L 209.75 140.08 C 209.75 138.79 208.70 137.74 207.40 137.74 L 207.40 137.74 L 203.18 137.74 Z" fill="url(#linearGradient-26)" fill-rule="evenodd" group-id="1,9,41" id="Fill-33" node-id="135" stroke="none" target-height="75.62401" target-width="8.929993" target-x="200.824" target-y="137.73999"></path></g></g><g node-id="540"><g node-id="573"><path d="M 235.89 89.90 L 236.86 94.63 C 231.11 105.19 248.94 128.33 248.94 128.33 L 248.94 128.33 C 249.71 128.52 250.53 128.65 251.38 128.71 L 251.38 128.71 L 274.86 118.58 L 284.57 104.61 C 284.72 103.92 284.83 103.22 284.90 102.52 L 284.90 102.52 L 283.12 98.90 C 278.51 93.88 267.00 84.33 263.80 82.54 L 263.80 82.54 C 262.69 81.92 256.25 80.42 256.25 80.42 L 256.25 80.42 C 256.25 80.42 256.22 80.37 256.16 80.29 L 256.16 80.29 C 248.92 81.53 241.40 84.94 235.89 89.90" fill="url(#linearGradient-29)" fill-rule="evenodd" group-id="1,10,43" id="Fill-35" node-id="140" stroke="none" target-height="48.420006" target-width="53.792984" target-x="231.106" target-y="80.292"></path></g></g><g node-id="541"><g node-id="575"><path d="M 243.03 134.78 C 243.03 134.78 251.83 100.76 284.95 101.92 C 322.17 103.22 250.38 149.26 243.03 134.78" fill="#ffffff" fill-rule="evenodd" group-id="1,11,45" id="Fill-37" node-id="145" stroke="none" target-height="48.494995" target-width="79.137024" target-x="243.0297" target-y="100.7626"></path></g></g><g node-id="542"><g node-id="577"><path d="M 257.30 111.66 C 258.70 114.59 262.30 116.05 265.74 114.94 L 265.74 114.94 C 269.45 113.75 271.56 110.00 270.46 106.59 L 270.46 106.59 C 270.18 105.75 269.74 105.00 269.17 104.38 L 269.17 104.38 C 264.48 106.15 260.56 108.74 257.30 111.66" fill="url(#linearGradient-34)" fill-rule="evenodd" group-id="1,12,47" id="Fill-39" node-id="150" stroke="none" target-height="11.671997" target-width="14.265991" target-x="257.299" target-y="104.37601"></path></g></g><g node-id="543"><g node-id="579"><path d="M 241.86 74.80 C 236.32 77.40 234.89 85.02 234.89 85.02 L 234.89 85.02 L 236.86 94.63 C 236.86 94.63 240.07 80.64 259.80 81.47 L 259.80 81.47 L 259.71 81.27 C 257.93 80.81 256.25 80.42 256.25 80.42 L 256.25 80.42 C 256.25 80.42 251.47 73.99 245.46 73.99 L 245.46 73.99 C 244.30 73.99 243.09 74.23 241.86 74.80" fill="url(#linearGradient-37)" fill-rule="evenodd" group-id="1,13,49" id="Fill-41" node-id="155" stroke="none" target-height="20.646996" target-width="24.912994" target-x="234.887" target-y="73.98701"></path></g></g><g node-id="544"><g node-id="581"><path d="M 172.78 172.83 C 159.32 177.18 146.19 176.93 133.29 173.38 L 133.29 173.38 L 140.41 205.14 C 149.27 208.16 158.13 208.26 167.01 205.10 L 167.01 205.10 L 172.78 172.83 L 172.78 172.83 Z" fill="url(#linearGradient-40)" fill-rule="evenodd" group-id="1,14,51" id="Fill-43" node-id="160" stroke="none" target-height="35.425003" target-width="39.490005" target-x="133.293" target-y="172.83499"></path></g></g><path d="M 153.31 170.66 C 164.08 170.66 172.83 171.90 172.83 173.43 C 172.83 174.96 164.08 176.20 153.31 176.20 C 142.54 176.20 133.80 174.96 133.80 173.43 C 133.80 171.90 142.54 170.66 153.31 170.66" fill="#f3a789" fill-rule="evenodd" group-id="1" id="Fill-45" node-id="161" stroke="none" target-height="5.5360107" target-width="39.031006" target-x="133.7964" target-y="170.6601"></path><g node-id="545"><g node-id="583"><path d="M 127.20 142.42 C 134.15 159.67 148.90 183.20 155.98 173.61 L 155.98 173.61 C 152.99 153.57 131.11 135.92 116.22 132.20 L 116.22 132.20 C 115.78 132.62 123.83 134.04 127.20 142.42" fill="url(#linearGradient-43)" fill-rule="evenodd" group-id="1,15,53" id="Fill-47" node-id="166" stroke="none" target-height="51.005005" target-width="40.20301" target-x="115.781" target-y="132.19899"></path></g></g><g node-id="546"><g node-id="585"><path d="M 117.57 132.93 C 117.84 133.05 118.14 133.18 118.47 133.34 L 118.47 133.34 C 135.19 139.65 146.25 153.44 155.31 174.00 L 155.31 174.00 C 155.32 174.04 155.37 174.05 155.40 174.04 L 155.40 174.04 C 155.44 174.02 155.45 173.98 155.44 173.94 L 155.44 173.94 C 146.21 152.99 134.89 139.06 117.66 132.89 L 117.66 132.89 C 117.65 132.89 117.64 132.89 117.64 132.89 L 117.64 132.89 C 117.61 132.89 117.58 132.90 117.57 132.93" fill="url(#linearGradient-46)" fill-rule="evenodd" group-id="1,16,55" id="Fill-49" node-id="171" stroke="none" target-height="41.166" target-width="37.881004" target-x="117.572" target-y="132.888"></path></g></g><g node-id="547"><g node-id="587"><path d="M 149.11 164.73 C 150.57 176.24 155.86 180.56 160.61 167.70 L 160.61 167.70 C 162.82 139.53 161.54 107.24 133.90 80.74 L 133.90 80.74 C 151.72 106.55 150.67 138.49 149.11 164.73" fill="url(#linearGradient-49)" fill-rule="evenodd" group-id="1,17,57" id="Fill-51" node-id="176" stroke="none" target-height="99.825" target-width="28.919006" target-x="133.902" target-y="80.73801"></path></g></g><g node-id="548"><g node-id="589"><path d="M 166.00 138.99 C 157.99 154.28 149.12 178.05 157.81 175.58 L 157.81 175.58 C 169.07 160.62 171.53 136.82 168.07 126.14 L 168.07 126.14 C 167.64 126.18 169.88 131.56 166.00 138.99" fill="url(#linearGradient-52)" fill-rule="evenodd" group-id="1,18,59" id="Fill-53" node-id="181" stroke="none" target-height="51.91301" target-width="22.410995" target-x="149.123" target-y="126.13699"></path></g></g><path d="M 168.15 127.37 C 168.18 127.60 168.21 127.86 168.24 128.15 L 168.24 128.15 C 170.80 141.56 166.54 156.82 157.31 175.47 L 157.31 175.47 C 157.29 175.50 157.29 175.54 157.32 175.55 L 157.32 175.55 C 157.34 175.56 157.37 175.54 157.39 175.50 L 157.39 175.50 C 166.81 156.49 171.06 141.00 168.20 127.39 L 168.20 127.39 C 168.20 127.37 168.19 127.36 168.17 127.36 L 168.17 127.36 C 168.16 127.36 168.16 127.36 168.15 127.37" fill="url(#linearGradient-55)" fill-rule="evenodd" group-id="1,19,61" id="Fill-55" node-id="186" stroke="none" target-height="48.195007" target-width="13.768005" target-x="157.288" target-y="127.362"></path></g></svg>